<!-- Generated by IcoMoon.io -->
<svg version="1.1" xmlns="http://www.w3.org/2000/svg" width="32" height="32" viewBox="0 0 32 32">
    <title>dart</title>
    <path fill="#0175c2"
          d="M5.473 5.473c0 0 6.737-3.367 10.105-5.052 0.53-0.267 1.154-0.423 1.815-0.423 0.056 0 0.112 0.001 0.167 0.003l-0.008-0c1.021 0.063 2.236 1.051 2.236 1.051l12.211 12.212v13.052h-5.684v5.684h-13.264l-12-12c-0.648-0.667-1.052-1.607-1.052-2.527 0-0.425 0.24-1.091 0.421-1.473zM6.379 6.379v15.716c0.003 0.724 0.028 1.365 0.664 2.011l6.563 6.561h11.377v-5.684zM22.452 5.475c-1.199-1.195-2.412-2.373-3.653-3.524-0.403-0.356-0.756-0.624-1.427-0.616-0.493 0.019-1.16 0.26-1.16 0.26l-7.757 3.879z"></path>
</svg>
