<?xml version="1.0" encoding="utf-8"?>
<svg viewBox="0 0 500 500" width="500px" height="500px" xmlns="http://www.w3.org/2000/svg">
    <path style="fill: rgb(216, 216, 216); stroke: rgb(0, 0, 0);" d="M 252.907 67.442"/>
    <path fill="#def4ff"
          d="M 558.544 131.433 m -150 0 a 150 150 0 1 0 300 0 a 150 150 0 1 0 -300 0 Z M 558.544 131.433 m -59 0 a 59 105 0 0 1 118 0 a 59 105 0 0 1 -118 0 Z"
          transform="matrix(-1, -0.000041, 0.000041, -1, 807.954651, 382.618317)"/>
    <path opacity="0.7" style="fill: #192935;"
          transform="matrix(0.26178, 0.453372, 1.962761, -1.133318, -624.897119, 647.53242)"
          d="M 141.556 356.806 A 105.892 105.892 0 1 1 141.556 487.194 A 73.279 73.279 0 1 0 141.556 356.806 Z"/>
</svg>